::General::
Complete name: Universal Soldier Day Of Reckoning 2012 1080p BrRip x264 Dual-Audio [English 5.1-Hindi 5.1] NimitMak SilverRG
Format: Matroska
File size: 1.88 GiB
Duration: 1h 53mn
Overall Bitrate: 2370 Kbps
Language: Dual-Audio [English 5.1 - Hindi 5.1]
Sub Title: English
Encoder: NimitMak

::IMDB INFO::
IMDB Link:http://www.imdb.com/title/tt1659343/
IMDB Rating:5.2/10
Release Date:4 January 2013 (India)
Genre: Action | Sci-Fi | Thriller 

::Video::
Format/Info: Advanced Video Codec
Bitrate: 1730 Kbps
Width: 1920 pixels
Height: 816 pixels
Display aspect ratio: 2.35:1
Frame rate: 23.976 fps

::Audio #1::
ID: 2
Format: AC-3
Format/Info: Audio Coding 3
Duration: 1h 53mn
Bit rate mode: Constant
Bit rate: 256 Kbps
Channel(s) : 6 channels
Channel positions: Front: L C R, Side: L R, LFE
Sampling rate: 48.0 KHz
Bit depth: 16 bits
Compression mode: Lossy
Stream size: 208 MiB (11%)
Title: Hindi - NimitMak SilverRG

::Audio #2::
ID: 3
Format: AC-3
Format/Info: Audio Coding 3
Duration: 1h 53mn
Bit rate mode: Constant
Bit rate: 384 Kbps
Channel(s): 6 channels
Channel positions: Front: L C R, Side: L R, LFE
Sampling rate: 48.0 KHz
Bit depth: 16 bits
Compression mode: Lossy
Stream size: 312 MiB (16%)
Title: English - NimitMak SilverRG

::Text::
ID: 4
Format : UTF-8
Codec ID: S_TEXT/UTF8
Codec ID/Info: UTF-8 Plain Text
Title: English - NimitMak SilverRG

Screens : 
 
http://i.imgbox.com/acdwnE5H 
http://i.imgbox.com/adbIxPmq 
http://i.imgbox.com/abdCDrjW 
http://i.imgbox.com/acg3x5G4 
http://i.imgbox.com/abuY4rTH 
http://i.imgbox.com/adwqE7xh 
http://i.imgbox.com/achl4Nff 
http://i.imgbox.com/aduFZkr8 
http://i.imgbox.com/acj74eKP 
http://i.imgbox.com/acsx3oIp 
http://i.imgbox.com/abiJ1ye8 
http://i.imgbox.com/acnGy9fI